<?xml version="1.0" standalone="no"?>
<!DOCTYPE svg PUBLIC "-//W3C//DTD SVG 20010904//EN"
 "http://www.w3.org/TR/2001/REC-SVG-20010904/DTD/svg10.dtd">
<svg version="1.0" xmlns="http://www.w3.org/2000/svg"
 width="2048.000000pt" height="1638.000000pt" viewBox="0 0 2048.000000 1638.000000"
 preserveAspectRatio="xMidYMid meet">

<g transform="translate(0.000000,1638.000000) scale(0.100000,-0.100000)"
fill="#000000" stroke="none">
<path d="M12480 8435 l0 -825 160 0 160 0 -2 823 -3 822 -157 3 -158 3 0 -826z"/>
<path d="M12915 9248 c-3 -7 -4 -377 -3 -823 l3 -810 158 -3 157 -3 0 826 0
825 -155 0 c-115 0 -157 -3 -160 -12z"/>
<path d="M9210 8861 c-208 -24 -354 -127 -445 -316 -101 -209 -101 -451 1
-663 103 -214 273 -312 539 -313 245 -1 407 75 518 244 77 117 111 243 111
407 0 132 -16 206 -70 320 -76 161 -195 263 -354 304 -71 18 -217 26 -300 17z
m208 -283 c44 -13 96 -60 127 -112 76 -129 72 -395 -8 -513 -85 -126 -254
-157 -384 -70 -91 61 -141 206 -129 377 13 190 94 307 231 331 45 8 114 2 163
-13z"/>
<path d="M7323 8844 c-87 -18 -156 -58 -219 -128 l-54 -59 0 87 0 87 -152 -3
-153 -3 -3 -847 -2 -848 160 0 160 0 0 312 0 312 50 -56 c88 -99 218 -141 368
-119 202 29 355 174 417 396 26 91 32 348 11 451 -22 110 -75 213 -145 283
-119 119 -280 169 -438 135z m117 -297 c96 -47 150 -168 150 -337 0 -167 -52
-285 -150 -340 -37 -21 -58 -25 -120 -24 -90 0 -140 22 -193 85 -49 57 -68
117 -74 235 -12 231 68 381 214 403 67 10 120 3 173 -22z"/>
<path d="M8574 8850 c-95 -19 -156 -62 -230 -163 l-43 -58 -3 98 -3 98 -152 3
-153 3 0 -611 0 -610 160 0 160 0 0 28 c1 15 2 171 4 347 3 356 8 390 63 455
56 65 101 83 221 88 l102 4 0 164 0 164 -42 -1 c-24 -1 -61 -5 -84 -9z"/>
<path d="M10590 8849 c-89 -15 -171 -61 -235 -132 l-55 -62 0 88 0 87 -150 0
-150 0 0 -850 0 -850 155 0 155 0 0 310 c0 171 3 310 8 309 4 0 23 -21 43 -47
72 -96 220 -145 367 -123 230 34 376 188 433 456 7 33 13 119 13 190 1 224
-47 370 -159 481 -114 115 -271 168 -425 143z m100 -299 c76 -39 130 -131 150
-255 14 -84 6 -166 -22 -260 -37 -119 -132 -195 -246 -195 -104 0 -202 71
-242 175 -20 50 -23 79 -24 180 0 183 43 293 136 345 72 41 179 45 248 10z"/>
<path d="M11666 8844 c-148 -36 -286 -145 -351 -277 -58 -119 -70 -181 -69
-362 0 -174 11 -237 61 -343 34 -73 137 -176 220 -220 177 -94 436 -96 606 -5
106 57 224 203 243 301 l7 32 -161 0 -160 0 -35 -49 c-47 -65 -102 -91 -193
-91 -152 0 -244 89 -268 258 l-6 42 421 0 422 0 -7 123 c-11 209 -61 342 -171
453 -101 102 -240 154 -410 153 -49 0 -116 -7 -149 -15z m264 -274 c72 -37
130 -128 130 -204 l0 -26 -245 0 c-135 0 -245 4 -245 8 0 27 34 114 59 152 33
50 78 81 131 90 54 10 129 1 170 -20z"/>
<path d="M13755 8848 c-138 -26 -293 -141 -359 -267 -61 -117 -79 -202 -79
-376 1 -231 41 -353 153 -465 66 -66 188 -133 281 -155 138 -32 325 -12 444
48 114 57 255 231 255 315 0 22 -1 22 -158 22 l-157 0 -35 -47 c-48 -65 -105
-93 -190 -93 -75 1 -122 15 -173 54 -46 35 -89 122 -95 192 l-4 54 417 0 418
0 -6 133 c-8 201 -53 322 -164 438 -64 68 -144 113 -249 139 -83 22 -211 25
-299 8z m254 -282 c65 -31 109 -97 125 -188 l7 -38 -249 0 -250 0 10 43 c23
104 93 190 165 202 21 4 43 8 48 10 22 8 102 -8 144 -29z"/>
<path d="M15110 8844 c-91 -25 -146 -68 -215 -168 l-34 -50 -3 100 -3 99 -152
3 -153 3 0 -611 0 -610 160 0 160 0 0 323 c0 358 9 432 57 501 16 22 50 50 78
65 42 22 66 26 153 29 l102 4 -2 162 -3 161 -45 2 c-25 1 -70 -5 -100 -13z"/>
<path d="M5830 8525 l0 -305 -305 0 -305 0 0 -305 0 -305 305 0 305 0 0 305 0
305 305 0 305 0 0 305 0 305 -305 0 -305 0 0 -305z"/>
</g>
</svg>
